<?xml version="1.0" encoding="UTF-8" standalone="no"?>
<!DOCTYPE svg PUBLIC "-//W3C//DTD SVG 1.1//EN" "http://www.w3.org/Graphics/SVG/1.1/DTD/svg11.dtd">
<svg width="128px" height="128px" version="1.1" xmlns="http://www.w3.org/2000/svg" xmlns:xlink="http://www.w3.org/1999/xlink" xml:space="preserve" xmlns:serif="http://www.serif.com/" style="fill-rule:evenodd;clip-rule:evenodd;stroke-linejoin:round;stroke-miterlimit:2;">
    <path d="M120.82,12.53C120.82,12.53 120.38,11.72 118.53,12.05C116.49,12.41 112.12,15.72 110.73,23.89C109.34,32.06 107.97,57.31 108.92,58.96C110.67,62.03 114.26,64.48 114.34,66.21C114.4,67.51 114,97.57 113.72,99.72C113.44,101.86 111.9,107.71 111.7,109.2C111.51,110.66 112.37,111.8 113.28,111.88C114.77,112.02 119.25,112.06 119.25,112.06L120.82,12.53Z" style="fill:rgb(156,156,156);fill-rule:nonzero;"/>
    <path d="M21.64,48.95C21.64,48.95 21.19,28.86 21.15,27.92C21.11,27.15 20.65,26.12 19.46,26.23C18.77,26.3 18.54,27.05 18.54,27.76C18.54,28.99 18.41,44.49 18.43,45.65C18.45,47.33 16.54,46.96 16.58,45.73C16.62,44.5 16.54,28.71 16.48,27.64C16.43,26.83 16.02,26.26 15.35,26.26C14.69,26.26 14.14,26.73 14.03,27.6C13.78,29.45 13.84,44.72 13.8,45.84C13.75,47.22 12.1,47.17 12.1,45.69C12.1,44.21 12.06,28.78 12.06,27.55C12.06,26.9 11.85,26.11 10.97,26.15C10.12,26.19 9.86,26.91 9.82,27.45C9.74,28.6 9.15,44.42 9.1,45.45C9,47.07 7.33,47.13 7.33,45.37C7.33,43.6 7.74,28.96 7.78,27.73C7.81,26.96 7.51,26.08 6.71,26.12C5.91,26.16 5.45,26.54 5.14,27.77C4.82,29.06 4.48,36.54 4.13,40.86C3.95,43.12 2.89,52.74 4.03,55.27C5.68,58.91 8.91,59.57 8.91,59.57C8.91,59.57 8.34,95.27 8.02,97.61C7.56,100.99 5.66,105.81 5.86,108.27C5.97,109.63 6.83,110.4 8.25,110.47C9.67,110.54 12.51,110.91 13.31,110.69C13.66,110.6 13.8,88.5 13.8,88.5L14.15,53.78L21.64,48.95Z" style="fill:rgb(156,156,156);fill-rule:nonzero;"/>
    <path d="M6.12,51.03L21.58,52.88C21.58,52.88 21.54,55.79 20.27,57.41C18.67,59.44 16.82,59.67 16.82,59.67C16.82,59.67 16.61,96.6 16.94,99.18C17.28,101.75 19.46,108.06 18.76,109.41C18.14,110.6 16.63,110.9 13.36,110.79C9.92,110.68 8.94,110.76 8.81,108.43C8.68,106.1 10.77,101.82 10.87,98.85C10.97,95.88 11.34,58.14 11.34,58.14C11.34,58.14 7.6,57.7 6.21,54.5C5.14,52 6.12,51.03 6.12,51.03Z" style="fill:rgb(200,200,200);fill-rule:nonzero;"/>
    <path d="M118.42,62.2L113.39,61.11C113.39,61.11 116.77,63.95 116.83,66.14C116.9,68.33 117.02,99.25 116.69,101.11C116.36,102.97 113.71,110.07 114.92,111.35C115.75,112.22 118.48,112.04 120,112.04C121.52,112.04 122.78,111.97 123.45,111.05C124.11,110.12 123.81,107.64 123.46,105.78C123.06,103.62 122.59,101.67 122.59,100.72C122.59,99 121.46,58.9 121.46,58.9L118.42,62.2Z" style="fill:rgb(200,200,200);fill-rule:nonzero;"/>
    <path d="M120.29,12.33C118.9,12.37 115.56,13.84 113.78,20.3C112.39,25.34 112.06,31.39 111.72,42.12C111.31,55.03 111.85,59.09 112.25,59.42C112.65,59.75 118.88,62.34 118.88,62.34L121.46,58.89C121.46,58.89 121.06,17.07 121.06,15.35C121.06,13.63 121.31,12.3 120.29,12.33Z" style="fill:rgb(224,224,224);fill-rule:nonzero;"/>
    <path d="M5.69,49.05C5.69,49.05 5.65,52.03 5.69,52.31C5.73,52.59 12.03,53.12 14.51,53.16C16.99,53.2 21.6,52.91 21.6,52.91C21.6,52.91 21.68,51.91 21.68,50.76C21.68,49.76 21.65,48.93 21.65,48.93L5.69,49.05Z" style="fill:rgb(224,224,224);fill-rule:nonzero;"/>
    <path d="M7.11,55.12C9.11,55.59 13.46,53.75 12.82,53.03C12.13,52.25 5.77,51.62 5.69,52.22C5.61,52.81 6.05,54.87 7.11,55.12Z" style="fill:rgb(253,253,253);fill-rule:nonzero;"/>
    <path d="M16.57,108.15C17.09,107.19 16.69,104.3 16.45,102.78C16.21,101.26 16,100.08 15.35,100.17C14.81,100.25 14.81,100.85 14.81,102.12C14.81,103.38 14.91,105.43 14.43,105.89C13.95,106.35 12.2,107.33 12.38,108.28C12.56,109.22 13.8,109.18 14.71,109.14C15.28,109.11 16.15,108.93 16.57,108.15Z" style="fill:rgb(253,253,253);fill-rule:nonzero;"/>
    <path d="M121.12,104.02C120.53,103.98 120.49,105.02 120.49,106.13C120.49,107.23 120.16,108.05 119.67,108.38C119.18,108.71 117.89,109.4 117.97,110.04C118.05,110.67 118.69,110.82 120.51,110.74C122.33,110.66 122.29,109.37 122.23,108.06C122.17,106.75 121.98,104.08 121.12,104.02Z" style="fill:rgb(253,253,253);fill-rule:nonzero;"/>
    <path d="M112.24,59.07C111.75,59.28 113.25,61.14 114.95,62.6C116.71,64.11 117.45,64.58 119.25,64.48C121.05,64.38 121.97,59.49 120.85,59.06C119.72,58.63 119.4,60.42 117.94,60.67C116.49,60.93 113.14,58.68 112.24,59.07Z" style="fill:rgb(253,253,253);fill-rule:nonzero;"/>
    <path d="M26.99,50.52L102.06,48.02C102.06,48.02 114.09,70.04 97.86,92.24C82.01,113.93 48.7,111.43 33.88,93.65C17.27,73.71 26.99,50.52 26.99,50.52Z" style="fill:rgb(212,212,212);fill-rule:nonzero;"/>
    <path d="M63.95,23.89C39.99,24.06 25.66,40.5 25.31,62.18C24.96,84.04 41.74,104.31 65.87,104.31C91.05,104.31 105.21,83.86 105.38,62.35C105.54,43.28 88.77,23.71 63.95,23.89Z" style="fill:rgb(246,246,246);fill-rule:nonzero;"/>
    <path d="M36.87,62.84L39.12,56.51C39.12,56.51 45.29,38.15 64.84,38.25C83.06,38.35 89.81,55.65 89.81,55.65L91.88,62.36L92.98,58.58L90.38,49.56L81.58,39.33L66.75,34.73L54.37,36.47L44.24,42.9L37.49,53.34L36.87,62.84Z" style="fill:rgb(213,213,213);fill-rule:nonzero;"/>
    <path d="M64.66,92.46C48.65,92.46 36.34,80.6 35.25,64.01C34.73,56.1 37.48,48.53 43,42.71C48.61,36.77 56.49,33.4 64.66,33.49C73.25,33.57 80.63,36.67 86.02,42.45C91.52,48.35 94.38,56.47 93.87,64.71C92.9,80.45 80.92,92.11 65.38,92.46C65.13,92.45 64.89,92.46 64.66,92.46ZM64.39,35.98C57.02,35.98 49.89,39.05 44.81,44.42C39.78,49.74 37.27,56.64 37.74,63.84C38.75,79.29 50.32,90.26 65.31,89.94C79.52,89.63 90.47,78.95 91.36,64.54C91.82,57.09 89.13,49.46 84.18,44.13C79.27,38.86 72.51,36.04 64.63,35.97C64.55,35.98 64.47,35.98 64.39,35.98Z" style="fill:white;fill-rule:nonzero;"/>
</svg>
