<?xml version="1.0" encoding="UTF-8" standalone="no"?>
<!DOCTYPE svg PUBLIC "-//W3C//DTD SVG 1.1//EN" "http://www.w3.org/Graphics/SVG/1.1/DTD/svg11.dtd">
<svg width="512px" height="512px" version="1.1" xmlns="http://www.w3.org/2000/svg" xmlns:xlink="http://www.w3.org/1999/xlink" xml:space="preserve" xmlns:serif="http://www.serif.com/" style="fill-rule:evenodd;clip-rule:evenodd;stroke-linejoin:round;stroke-miterlimit:2;">
    <g id="cake">
        <path d="M24.0427,238.531C238.9284,208.1713 427.0923,177.5052 440.5658,197.4506C450.1955,211.7057 449.5066,284.8922 448.8269,285.7334C448.4291,286.2257 426.0835,292.4762 401.5082,293.672C349.5163,296.2019 350.3623,303.0175 298.5355,306.9724C229.5448,312.237 230.586,320.5795 161.4725,325.137C109.4096,328.5702 110.1472,334.4105 44.5308,340.7974C36.3527,341.5934 36.4432,341.517 23.9692,342.5138C23.9355,246.8238 23.8262,246.8468 24.0427,238.531Z" style="fill:rgb(254,207,96);"/>
        <path d="M448.51,335.504C448.7356,345.6041 446.172,403.7915 445.0025,427.4807C444.8421,430.7293 444.5311,430.6877 445.4844,433.8173C394.0511,440.3897 367.2187,444.2474 314.5293,451.7108C258.036,459.713 257.9833,458.7282 201.5452,466.9179C125.8048,477.9085 125.7515,477.202 113.5468,478.9335C70.5815,485.0293 36.6715,491.5186 30.3954,485.623C20.3867,476.2211 24.9218,468.3185 23.9847,393.5389C24.7821,393.4483 24.7002,393.4232 25.4437,393.3731C79.3896,389.7381 108.0118,378.3164 134.477,377.0455C162.2723,375.7106 163.2248,375.1606 197.4459,369.2073C234.2337,362.8076 234.7222,366.835 268.4709,360.3539C327.6373,348.9916 328.7065,355.8713 387.5196,342.5845C421.955,334.8049 443.0112,338.1407 448.51,335.504Z" style="fill:rgb(254,207,96);fill-opacity:1;"/>
        <path d="M448.5204,346.1832C440.1551,347.5384 418.1433,345.6661 387.5196,352.5845C328.7065,365.8713 327.6373,358.9916 268.4709,370.3539C234.7222,376.835 234.2337,372.8076 197.4459,379.2073C163.2248,385.1606 162.2723,385.7106 134.477,387.0455C108.0118,388.3164 79.3896,399.7381 25.4437,403.3731C24.7002,403.4232 24.7821,403.4483 23.9847,403.5389C23.9802,401.6909 23.9439,376.5935 23.9861,370.4394C27.7027,371.7583 27.7869,370.8342 62.5364,367.8295C97.3285,364.821 96.6768,360.1243 163.4699,353.2266C205.8745,348.8475 205.646,347.8779 247.5795,339.9543C285.0063,332.8823 290.1868,337.65 362.5532,324.7845C400.2588,318.0811 400.7982,322.2912 441.5299,314.6546C445.628,313.8862 447,314 448.8343,315.4552C448.9601,279.7819 447.877,208.2736 440.5658,197.4506C427.0923,177.5052 238.9284,208.1713 24.0427,238.531C24.022,213.6985 23.8969,213.6892 24.4662,212.4785C25.3104,210.6833 54.8042,193.2491 64.3082,188.1009C65.6928,187.3509 80.8483,179.1414 81.6318,178.7554C99.7128,169.8476 100.0552,170.7937 118.2958,162.0589C135.1027,154.0107 135.9289,155.0897 142.3087,152.0693C148.9998,148.9016 172.7539,141.0088 182.4181,137.3635C188.8958,142.4744 188.2109,149.6475 223.4466,154.9601C275.5124,161.0265 315.8962,142.8295 314.5049,107.4977C321.3846,110.8262 326.9555,113.1275 333.6609,109.7221C333.8986,109.6013 333.7967,109.5189 335.5134,106.9506C376.9843,108.5975 433.8645,129.714 440.2289,134.8258C450.3428,142.9492 453.5873,142.0228 468.1976,156.7982C498.9797,187.9283 486.4276,345.0939 482.0431,386.444C481.9409,387.4084 480.9931,396.347 480.9049,398.5127C479.6229,429.9955 469.0672,430.9235 445.4844,433.8173C444.5311,430.6877 444.8421,430.7293 445.0025,427.4807C446.1481,404.2759 448.6314,357.9694 448.5204,346.1832Z" style="fill:rgb(240,232,217);fill-opacity:1;"/>
        <path d="M448.8343,315.4552C447,315 446.3429,313.7522 441.5299,314.6546C400.7982,322.2912 400.2588,318.0811 362.5532,324.7845C290.1868,337.65 285.0063,332.8823 247.5795,339.9543C205.646,347.8779 205.8745,348.8475 163.4699,353.2266C96.6768,360.1243 97.3285,364.821 62.5364,367.8295C27.7869,370.8342 27.7027,371.7583 23.9861,370.4394C24.0016,368.2054 24.1292,339.8456 23.9692,332.5138C36.4432,331.517 36.3527,331.5934 44.5308,330.7974C110.1472,324.4105 109.4096,318.5702 161.4725,315.137C230.586,310.5795 229.5448,302.237 298.5355,296.9724C350.3623,293.0175 349.5163,286.2019 401.5082,283.672C426.0835,282.4762 448.4291,276.2257 448.8269,275.7334L448.8343,315.4552Z" style="fill:rgb(230,15,0);fill-opacity:1;"/>
        <path d="M272.339,39.4943C273.6469,46.1028 272.979,46.4792 278.3668,53.612C282.5859,59.4033 282.8349,69.0459 295.4513,72.6453C297.7048,73.2882 292.9636,82.8898 303.5986,93.4042C305.9281,95.7072 305.7804,95.754 307.3067,98.5979C307.778,99.383 309.4652,102.194 314.5049,107.4977C315.8962,142.8295 275.5124,161.0265 223.4466,154.9601C188.2109,149.6475 188.8958,142.4744 182.4181,137.3635C181.6061,131.9011 177.9059,107.0105 200.9403,70.8644C207.2263,61.0004 219.066,50.4525 220.8374,48.8744C227.9269,42.5583 241.6071,36.6879 248.4789,36.2258C264.4359,35.1526 266.7675,39.0476 272.339,39.4943Z" style="fill:rgb(225,7,15);fill-opacity:1;"/>
        <path d="M285.5486,38.3301C287.2196,38.046 287.2195,38.0829 287.3533,38.0232C292.5281,35.713 288.6153,40.8277 290.8256,47.3749C291.2605,48.663 292.4952,48.4945 292.4985,48.4967C292.3125,49.5347 291.412,52.4639 292.679,57.4466C288.2968,64.8567 294.8517,70.1054 298.7311,71.3074C298.5376,80.965 305.095,84.0195 309.6068,83.3849C309.9858,83.7795 312.8871,86.8004 315.5014,86.8547C315.8519,86.862 316.1703,86.4051 316.5,86.5244C316.982,86.6987 317.107,87.4355 317.589,87.6099C318.0764,92.438 325.4913,93.8341 326.3431,93.9944C329.9662,94.6766 324.8413,97.3964 324.5606,97.5455C323.4631,98.0439 315.6748,101.5811 309.5,97.9651C307.4671,96.7746 307.651,98.4985 307.3067,98.5979C305.7804,95.754 305.9281,95.7072 303.5986,93.4042C292.9636,82.8898 297.7048,73.2882 295.4513,72.6453C282.8349,69.0459 282.5859,59.4033 278.3668,53.612C278.512,53.1746 279.0431,52.9374 279.1883,52.5C279.8223,50.5903 276.0098,47.3657 285.5486,38.3301Z" style="fill:rgb(68,156,0);fill-opacity:0.99;"/>
        <path d="M301.8178,66.5077L302.5593,67.2914C320.8991,60.7227 320.835,46.892 324.5073,46.5534C331.5917,45.9002 331.0772,62.643 309.5995,69.7094C309.1434,69.9034 308.6872,70.0973 308.2311,70.2913C305.7775,70.5397 304.7143,69.7629 304.6748,72.2482C300.7141,71.819 299.1973,71.4277 298.7311,71.3074C298.2203,68.1792 299.2503,68.4258 301.8178,66.5077Z" style="fill:rgb(121,180,28);fill-opacity:0.99;"/>
        <path d="M285.5486,38.3301C276.0098,47.3657 279.8223,50.5903 279.1883,52.5C279.0431,52.9374 278.512,53.1746 278.3668,53.612C272.979,46.4792 273.6469,46.1028 272.339,39.4943C272.3081,38.1656 272.0512,27.093 279.5015,24.5045C284.0353,22.9293 278.4244,28.8344 285.5486,38.3301Z" style="fill:rgb(85,171,21);fill-opacity:0.99;"/>
        <path d="M324.5606,97.5455C324.5753,98.7895 324.2197,98.8521 325.0609,99.8416C331.6574,107.6014 332.5173,106.5989 335.5134,106.9506C333.7967,109.5189 333.8986,109.6013 333.6609,109.7221C326.9555,113.1275 321.3846,110.8262 314.5049,107.4977C309.4652,102.194 307.778,99.383 307.3067,98.5979C307.651,98.4985 307.4671,96.7746 309.5,97.9651C315.6748,101.5811 323.4631,98.0439 324.5606,97.5455Z" style="fill:rgb(87,171,22);fill-opacity:1;"/>
        <path d="M300.5685,40.6497C300.8623,40.8336 301.2164,40.0249 301.5102,40.2088C301.8429,40.4172 301.4892,41.0481 301.7161,41.3684C301.8529,41.5614 302.2791,41.294 302.4159,41.487C299.1704,50.8483 308.1318,55.9967 302.8775,64.653L301.8178,66.5077C301.4809,66.2185 300.8369,66.6024 300.5,66.3131C299.2275,65.2205 297.0288,60.5289 292.679,57.4466C291.412,52.4639 292.3125,49.5347 292.4985,48.4967C292.9294,48.2972 297.3949,43.0798 300.5685,40.6497Z" style="fill:rgb(121,180,28);fill-opacity:0.99;"/>
        <path d="M304.6748,72.2482C305.9741,72.2026 307.2733,72.1571 308.5726,72.1116L309.623,72.0494C314.687,72.9449 314.8256,72.8317 318.5715,76.4231C325.9944,83.5399 331.0424,82.6282 331.042,83.5C331.0416,84.3639 318.683,87.3459 317.589,87.6099C317.107,87.4355 316.982,86.6987 316.5,86.5244C316.1703,86.4051 315.8519,86.862 315.5014,86.8547C312.8871,86.8004 309.9858,83.7795 309.6068,83.3849C309.4005,82.4326 309.2221,81.609 304.6748,72.2482Z" style="fill:rgb(122,181,28);fill-opacity:0.98;"/>
        <path d="M298.7311,71.3074C299.1973,71.4277 300.7141,71.819 304.6748,72.2482C309.2221,81.609 309.4005,82.4326 309.6068,83.3849C305.095,84.0195 298.5376,80.965 298.7311,71.3074Z" style="fill:rgb(86,171,21);"/>
        <path d="M292.679,57.4466C297.0288,60.5289 299.2275,65.2205 300.5,66.3131C300.8369,66.6024 301.4809,66.2185 301.8178,66.5077C299.2503,68.4258 298.2203,68.1792 298.7311,71.3074C294.8517,70.1054 288.2968,64.8567 292.679,57.4466Z" style="fill:rgb(86,171,21);"/>
        <path d="M300.5685,40.6497C302.5585,39.4411 302.8919,38.7504 303.1509,39.6384C303.1955,39.7912 303.0965,39.7754 302.4159,41.487C302.2791,41.294 301.8529,41.5614 301.7161,41.3684C301.4892,41.0481 301.8429,40.4172 301.5102,40.2088C301.2164,40.0249 300.8623,40.8336 300.5685,40.6497Z" style="fill:rgb(83,158,21);fill-opacity:0.19;"/>
        <path d="M309.5995,69.7094C309.4445,70.8914 309.2573,70.8618 309.623,72.0494L308.5726,72.1116C308.4588,71.5048 308.3449,70.8981 308.2311,70.2913C308.6872,70.0973 309.1434,69.9034 309.5995,69.7094Z" style="fill:rgb(95,139,23);fill-opacity:0.23;"/>
        <path d="M302.8775,64.653C302.5004,67.1245 302.6153,67.0863 302.5593,67.2914L301.8178,66.5077L302.8775,64.653Z" style="fill:rgb(113,160,14);fill-opacity:0.32;"/>
    </g>
</svg>
