<?xml version="1.0" encoding="UTF-8" standalone="no"?>
<!DOCTYPE svg PUBLIC "-//W3C//DTD SVG 1.1//EN" "http://www.w3.org/Graphics/SVG/1.1/DTD/svg11.dtd">
<svg width="512px" height="512px" version="1.1" xmlns="http://www.w3.org/2000/svg" xmlns:xlink="http://www.w3.org/1999/xlink" xml:space="preserve" xmlns:serif="http://www.serif.com/" style="fill-rule:evenodd;clip-rule:evenodd;stroke-linejoin:round;stroke-miterlimit:2;">
    <g id="cake">
        <path d="M238.5381,157.9635C246.8462,156.9945 247.051,157.9708 247.1719,158.5472C247.2016,158.6886 247.3417,179.1564 247.0818,180.0511C246.598,181.7173 237.3329,181.9654 235.0685,188.6542C234.391,190.6556 236.8999,193.2618 239.6084,193.3839C250.3444,193.868 250.0865,195.4206 260.8588,195.5672C261.9248,195.5817 286.6041,201.7417 287.0568,202.4361C287.4852,203.0932 286.7817,203.1606 286.93,211.8131C282.9558,210.6682 274.6629,215.0792 281.5908,224.4464C284.681,228.6247 289.9293,229.0158 297.3594,230.5338C298.0255,230.6699 330.4707,232.4161 337.4176,229.7426C342.24,227.8867 344.5854,226.0839 346.8748,218.8972L346.6995,217.452C347.8176,218.1481 347.7945,218.1148 349.1935,218.3808C352.0538,218.9247 416.3598,236.267 421.4901,236.9501C426.0284,237.5544 416.6255,239.3149 412.9725,240.2311C348.7616,256.3351 282.7103,255.6496 280.3451,255.9618C263.2542,258.2184 115.0698,257.2395 59.2957,225.3683C57.0469,224.0832 56.1695,226.4921 59.2227,228.3372C82.7629,242.5633 138.9102,250.6954 146.1002,251.7368C256.2753,267.6941 367.7015,253.0152 391.0028,247.779C413.7456,242.6683 413.6673,242.4744 415.673,242.1391C420.787,241.2842 426.4666,237.5133 426.4608,241.1534C426.4346,257.6983 426.7258,257.6758 426.6359,259.1104C426.3752,263.2721 426.3971,263.2726 426.3971,375.488C426.3971,397.7382 426.8894,398.5359 424.2042,399.425C398.3086,407.9998 300.4257,427.3776 173.2998,414.7666C160.927,413.5393 160.9757,413.5804 148.6496,411.8595C29.4918,395.2234 44.5639,365.5343 44.5705,365.3984C44.6302,364.1579 43.5295,364.3212 43.616,361.8391C43.6584,360.6243 43.5347,218.1781 43.6935,217.3976C44.6319,212.7862 44.5078,212.8353 44.1079,208.0994C43.8145,204.625 42.7585,192.1199 82.3849,178.9429C85.9776,177.7482 90.5281,175.5508 88.5211,178.7408C85.3645,183.7579 86.2837,189.819 86.257,191.6927C79.2176,191.4925 75.7031,206.8116 92.4966,208.4779C101.8297,209.4039 115.7525,209.8345 120.4881,208.7027C123.6784,207.9402 138.2056,208.8538 142.4883,205.0939C150.5247,198.0388 145.2331,187.3754 134.1347,190.1433C133.7309,187.601 133.6924,187.6293 134.2014,185.0826C149.0042,188.3671 157.1917,172.8169 148.6685,169.2006C148.5321,169.1428 148.537,169.1569 146.8936,168.6104C147.5444,165.5323 146.8361,164.9629 148.6401,164.6344C149.5238,164.4734 149.4881,164.6446 150.3568,164.4603C156.8101,163.0918 181.7797,161.046 183.09,160.6309C183.5804,168.1492 185.8527,167.4272 193.1341,171.8317C194.1678,172.457 194.2583,172.0814 208.9638,173.0112C216.5053,173.4881 217.3255,171.3791 225.9611,171.2321C226.5204,171.2226 233.0119,170 234.5959,167.9487C238.6461,162.7034 239.8184,162.6881 238.5381,157.9635ZM337.3719,196.2223C336.5005,196.143 335.6142,196.2678 334.7427,196.1886C334.6083,196.1763 328.5904,191.7482 329.7215,190.8686C329.7275,190.864 452.0063,190.8674 452.1662,190.881C454.5606,191.0849 454.0219,195.1595 453.5885,195.7249C453.159,196.2853 452.913,196.2222 337.3719,196.2223ZM436.0115,265.1864C432.1256,265.0679 430.0658,266.7436 430.0666,263.421C430.0673,260.2336 428.8536,258.7889 432.6047,258.7825C452.969,258.7478 453.7621,258.6401 453.819,259.8367C453.8389,260.2542 454.0502,264.701 453.1333,265.0273C452.5281,265.2427 449.1364,265.1864 436.0115,265.1864ZM438.5626,327.7466C450.2199,327.7466 453.7415,327.3774 453.8215,328.8005C453.8417,329.1603 454.0542,332.9398 453.1274,333.2641C452.9262,333.3344 431.1025,333.9186 430.3386,332.9359C429.9496,332.4356 429.9488,328.7473 430.3382,328.2429C430.9214,327.4874 438.2379,327.7471 438.5626,327.7466Z" style="fill:rgb(126,51,0);"/>
        <path d="M226.8275,421.1295C369.6116,424.2263 416.2053,402.4892 428.3454,401.7293C431.0604,401.5594 430.0601,400.3402 430.0642,386.982C430.0797,336.5005 429.8809,336.1309 430.7946,335.8077C433.1008,334.9921 457.1035,336.8701 457.2372,334.5357C457.6302,327.6748 456.5842,326.0301 458.911,326.7935C460.3384,327.2618 465.6921,329.0182 477.69,329.9184C483.9409,330.3874 485.8233,327.3579 488.0134,331.6176C494.5579,344.3464 496.8411,345.3238 509.89,350.5081C513.9855,352.1352 505.5662,355.6104 503.7109,363.2173C499.8977,378.8516 507.897,383.4053 504.1432,383.6787C502.907,383.7688 489.038,383.328 471.4668,394.5591C462.0564,400.574 459.1265,410.7405 454.7514,410.9571C441.9961,411.5887 438.3922,412.6613 430.9322,413.1862C424.3837,413.647 401.0991,418.526 398.5254,419.0653C387.3356,421.41 369.1795,432.108 364.6103,431.9767C360.9065,431.8703 334.7305,428.8106 312.7263,429.7047C287.2738,430.7389 248.4135,438.5842 244.6508,438.2656C240.7445,437.9349 217.5795,432.4989 195.3402,431.7852C192.3089,431.6879 192.405,431.2232 187.7118,431.126C169.35,430.7457 169.4067,429.5914 151.1778,431.056C151.011,431.0694 134.6866,431.1736 134.1032,431.1028C130.5511,430.6717 120.3178,421.3067 90.837,416.212C62.0426,411.2358 56.8458,415.5259 52.1911,410.9036C32.1427,390.9949 22.7388,390.6516 4.1551,385.3035C1.0183,384.4007 9.3405,381.4195 9.6325,375.4869C10.5149,357.5622 -2.5784,357.5202 2.5384,354.9305C29.2687,341.402 21.9119,334.4111 28.9422,330.5551C39.3835,324.828 39.7261,324.6632 40.4546,325.2984C41.9267,326.582 38.0735,368.3663 42.6827,376.7782C57.1717,403.2211 148.1562,418.8442 226.8275,421.1295Z" style="fill:rgb(174,84,8);"/>
        <path d="M165.6029,432.633C234.6788,433.9363 234.6154,441.3427 248.125,440.3919C257.0313,439.7651 297.2304,428.4903 346.6993,432.5953C352.207,433.0523 362.4059,434.025 363.7709,434.1552C375.0711,435.233 374.6821,422.8106 430.0197,415.5322C449.7483,412.9373 457.3694,413.817 459.4271,411.1809C462.4338,407.3291 469.3134,393.4988 493.8878,387.1282C494.7496,386.9048 504.987,384.2508 505.1538,386.9439C505.7292,396.2319 505.0142,396.4589 504.107,396.5488C503.3153,396.6272 494.0886,396.2352 479.5278,403.0062C459.5114,412.3141 460.8754,423.5674 454.7405,423.8679C442.2694,424.4788 409.6306,428.4839 394.4456,433.2176C381.1804,437.3528 368.1313,445.1515 365.4278,445.0183C362.5837,444.8782 326.4076,441.0676 309.2973,442.9546C290.27,445.053 290.0732,443.8137 257.4847,449.6143C242.2115,452.3329 242.1598,450.6111 226.7845,448.2218C221.816,447.4498 195.067,443.2931 163.9023,443.3333C159.5711,443.3389 155.1574,444.0041 138.3918,444.0492C126.5057,444.0812 128.2041,438.4794 107.0157,432.7381C80.8097,425.6373 55.6418,426.4676 53.6677,425.433C49.8091,423.4107 43.2248,409.2786 15.136,401.2609C10.2078,399.8541 1.2977,398.0821 1.152,395.6553C0.6416,387.1507 1.5133,386.9536 2.333,387.0185C2.6399,387.0428 17.2926,391.0769 20.8861,392.3526C43.5963,400.4146 48.7937,414.9413 55.8872,415.2097C60.3622,415.379 77.2814,415.0996 101.0454,420.5384C127.5865,426.6127 125.0726,433.5118 138.385,433.3469C140.5632,433.3199 140.5409,433.1748 165.6029,432.633Z" style="fill:rgb(174,84,8);"/>
        <path d="M336.7783,210.3943C336.0718,200.4182 335.3694,200.5305 335.0862,199.4611C334.7766,198.2923 335.9323,198.4473 389.2428,198.4473C452.789,198.4473 453.5619,198.2977 453.8111,199.4943C453.871,199.7821 453.8719,255.2186 453.8111,255.5104C453.5041,256.9838 452.7138,257.0885 431.7095,256.5472C427.5239,256.4394 432.579,237.1594 428.4454,235.9551C423.4314,234.4943 349.7194,215.6744 347.5683,214.6402C346.2231,213.9934 346.195,214.2976 344.8178,214.7735C339.4131,211.0779 339.0939,210.1821 336.7783,210.3943ZM449.617,267.4115C449.9663,267.427 453.7636,267.5959 453.8105,268.4585C453.8655,269.4694 453.8707,324.2209 453.8175,324.4755C453.6264,325.3896 453.1792,325.6014 432.6048,325.5214C429.7737,325.5104 430.0862,324.6918 430.0724,322.3281C430.0472,318.0185 429.7772,271.7927 430.1101,268.4574C430.2451,267.1053 432.4593,267.4115 449.617,267.4115ZM269.3466,191.2027C271.3216,191.1637 292.8858,190.738 294.0351,190.7556C296.7048,190.7965 292.747,193.4511 291.7862,194.6383C289.2266,197.8011 286.5761,194.358 284.0437,197.4872C283.0459,198.7202 263.264,193.138 263.7815,191.6969C264.1946,190.5465 264.739,191.1875 269.3466,191.2027Z" style="fill:rgb(80,31,0);"/>
        <path d="M293.0506,159.1866C288.3303,169.0311 299.996,168.0339 308.4071,169.4956C311.5017,170.0333 312.6679,169.0255 318.6264,170.1424C319.5393,170.3136 340.2974,171.9927 343.7855,164.8826C344.4517,163.5245 344.2731,163.5212 344.4374,162.0733C347.957,163.2426 373.9524,164.6731 374.1278,167.1375C374.1536,167.4994 374.074,167.4345 374.0318,171.6684C373.3959,172.0836 367.7116,175.7942 372.3143,180.0306C377.6555,184.9469 398.0142,184.7992 400.2976,184.7826C401.684,184.7725 412.0348,184.6974 417.3973,182.3987C422.3892,180.2588 422.9326,177.2347 422.9609,177.1766C427.3398,177.5291 446.2599,185.4099 448.2294,186.2302C452.6179,188.0581 447.2406,187.8294 447.0636,187.8218C439.8088,187.5132 326.0345,188.2215 322.8519,187.4317C315.2101,185.5352 313.564,184.0449 301.7293,187.4601C300.8551,187.7123 283.742,188.4289 282.4692,187.0392C281.8234,186.3341 279.1942,183.4634 271.1022,181.3844C268.7622,180.7832 265.1312,181.9459 265.1126,178.6525C264.9959,158.0526 265.6184,158.0352 265.9603,157.8513C267.5085,157.0185 267.6954,158.0339 288.9007,158.1761C291.1003,158.1909 291.0085,158.4234 293.0506,159.1866Z" style="fill:rgb(126,50,0);"/>
        <path d="M251.4871,191.918C245.8151,191.7125 246.0016,190.7553 240.3704,190.4572C240.1819,190.4472 238.1788,190.3411 238.9899,188.8385C240.7728,185.5358 244.9387,184.6853 245.5857,184.5533C248.8789,183.8809 247.0932,190.3111 249.8521,188.0503C250.6719,187.3785 250.0823,115.061 250.2489,83.1047C250.2618,80.6311 251.3401,80.3237 261.7348,80.6487C262.7649,80.6809 265.0053,80.7509 265.5883,91.0352C265.7674,94.1944 266.9495,96.5997 263.3514,96.3177C260.5555,96.0987 261.1507,97.2557 261.9288,99.5721C262.3437,100.8068 262.1158,185.4002 262.0597,186.5796C261.9979,187.8806 260.8754,188.6497 260.3612,190.2337C259.854,191.7961 259.4586,192.2469 251.4871,191.918ZM268.4942,188.3259C265.4949,188.1751 264.3682,188.3361 264.7398,185.7997C265.1226,183.1872 269.2605,184.2112 269.4093,184.2627C275.6941,186.4397 275.7474,186.1771 276.2713,186.3969C281.8293,188.7287 269.6137,188.2995 268.4942,188.3259Z" style="fill:rgb(254,235,141);"/>
        <path d="M260.9633,75.3827C260.5958,75.3797 255.7736,75.5418 255.7736,75.5418C255.0773,75.0417 255.2331,74.9215 253.28,73.7512C252.4918,73.2788 252.5172,73.2915 251.8182,72.7268C247.5457,69.275 247.5319,68.3556 249.3085,65.6951C250.2057,64.3514 250.2304,63.039 251.9494,61.3456C254.4902,58.8428 255.7406,56.33 256.5308,55.2733C258.658,52.4282 258.6256,52.0558 259.9013,52.0566C260.8537,52.0572 261.1641,52.3228 262.6127,54.9907L265.3711,63.9791C265.4889,63.8808 265.592,63.7737 265.6659,63.6486C265.8402,63.3535 265.5886,62.989 265.6168,62.6601C265.6202,62.6197 265.7503,62.6635 265.7538,62.6231C266.0236,64.2338 265.9633,64.2334 266.5569,65.7789C266.7191,66.2011 267.692,68.7341 266.3969,71.3253C265.6644,72.791 261.2442,75.385 260.9633,75.3827ZM264.0894,71.6267C264.1433,71.609 264.1908,71.5793 264.2304,71.534C264.3526,71.394 264.3309,71.2327 264.2566,71.0617L264.0894,71.6267Z" style="fill:rgb(254,181,123);"/>
        <path d="M331.3389,216.8741C328.3492,216.8038 328.4629,218.0328 325.4796,217.405C318.1107,215.8544 314.3833,219.8404 304.2191,218.1197C303.0956,217.9295 303.1348,218.006 294.0737,217.7896C277.581,193.8181 314.2106,178.5762 329.4016,195.3849C338.0082,204.908 331.5979,214.4467 331.3389,216.8741ZM170.7368,217.7827C170.1039,213.5728 167.7868,214.3327 166.8542,210.2158C166.4826,208.5758 163.8027,196.7462 175.7044,190.728C183.3135,186.8804 191.6125,186.0232 201.9608,192.5C203.0912,193.2075 211.096,201.5082 208.0288,209.5137C207.7576,210.2215 205.3915,216.3971 203.0012,217.7861C202.7725,217.919 202.3988,217.698 202.1701,217.8309C199.6558,217.7946 178.4906,217.4889 170.7368,217.7827ZM129.0414,195.168C105.8206,198.5145 104.015,195.7726 93.3227,196.5881C92.3758,196.6604 92.4358,196.532 90.6961,196.1877C90.6701,195.3707 91.8588,195.9273 91.8332,195.1238C91.8274,194.9401 91.6288,195.039 90.5972,193.0779C90.2601,192.4371 88.2755,188.6643 89.7247,184.3426C96.2646,164.8396 119.6642,168.7316 126.1246,176.7049C133.9923,186.415 128.7585,190.7863 129.0414,195.168ZM335.7531,159.4636C327.3925,159.8174 315.159,162.0469 304.1621,160.3066C303.0146,157.9916 298.6781,152.1531 303.1794,144.8038C311.4267,131.3382 339.1539,133.8156 337.8065,154.2094C337.6473,156.6189 336.7515,156.3686 335.7531,159.4636ZM417.3459,170.2837C414.4953,170.9779 414.8893,171.4648 413.0381,172.8902C410.4185,174.907 386.2062,176.4836 380.5587,172.3594C378.7995,171.0746 378.1158,171.2955 377.3185,171.1379C377.3254,171.1114 377.3214,171.1372 377.7549,165.7547C378.5288,156.1455 399.1299,145.8186 412.0066,159.3876C414.3926,161.9018 415.8131,168.45 415.9913,169.2717C416.235,170.3951 416.8239,169.8937 417.3459,170.2837ZM142.7004,168.7883C137.0091,170.2525 137.409,171.1893 131.5563,172.0082C129.0796,172.3547 128.8303,172.031 127.2545,173.6479C114.5768,163.9272 112.1533,168.8683 106.0056,167.3472C102.0429,166.3667 108.4677,145.3031 129.9578,149.751C137.075,151.2242 147.4389,161.2032 142.7004,168.7883ZM229.4412,157.9297C224.904,159.4085 224.8062,158.7073 219.9985,158.9003C213.1215,159.1764 213.2249,159.5265 206.4062,159.6521C199.0676,159.7873 199.0029,161.135 191.871,159.4778C192.0975,159.0461 192.8424,158.9182 193.069,158.4864C193.0732,158.4783 191.5467,156.3158 192.3001,151.3902C194.4721,137.1897 223.1836,130.6443 228.7932,152.7365C229.4994,155.5181 226.7091,156.2489 229.4412,157.9297Z" style="fill:rgb(250,14,4);"/>
        <path d="M336.7783,210.3943C339.0939,210.1821 339.4131,211.0779 344.8178,214.7735C346.1446,215.9449 345.9899,215.9715 346.6995,217.452L346.8748,218.8972C344.5854,226.0839 342.24,227.8867 337.4176,229.7426C330.4707,232.4161 298.0255,230.6699 297.3594,230.5338C289.9293,229.0158 284.681,228.6247 281.5908,224.4464C274.6629,215.0792 282.9558,210.6682 286.93,211.8131C290.3135,218.0986 291.1819,217.8549 294.0737,217.7896C303.1348,218.006 303.0956,217.9295 304.2191,218.1197C314.3833,219.8404 318.1107,215.8544 325.4796,217.405C328.4629,218.0328 328.3492,216.8038 331.3389,216.8741C332.7577,216.8469 334.2391,217.5699 336.7783,210.3943ZM231.5375,151.7427C233.8531,151.5305 234.1722,152.4263 239.577,156.1218C240.9038,157.2933 240.7491,157.3199 241.4587,158.8003L241.6339,160.2456C239.3445,167.4322 236.9991,169.2351 232.1768,171.091C225.2299,173.7645 199.6929,174.1622 199.0268,174.0262C191.5967,172.5082 186.3484,172.1171 183.2582,167.9388C176.3303,158.5716 184.6232,152.0055 188.5974,153.1503C191.9809,159.4359 192.8493,159.1921 195.7411,159.1268C204.8022,159.3432 204.763,159.2667 205.8865,159.4569C216.0507,161.1776 212.8698,157.2028 220.2387,158.7534C223.2221,159.3812 223.1083,158.1522 226.098,158.2225C227.5168,158.1953 228.9982,158.9183 231.5375,151.7427ZM134.1347,190.1433C145.2331,187.3754 150.5247,198.0388 142.4883,205.0939C138.2056,208.8538 123.6784,207.9402 120.4881,208.7027C115.7525,209.8345 101.8297,209.4039 92.4966,208.4779C75.7031,206.8116 79.2176,191.4925 86.257,191.6927C87.0343,193.1884 86.4788,194.4851 90.6961,196.1877C92.4358,196.532 92.3758,196.6604 93.3227,196.5881C104.015,195.7726 105.8206,198.5145 129.0414,195.168C130.5608,195.3795 132.4531,196.3691 134.1347,190.1433ZM211.8749,209.704C223.3947,205.5669 225.5091,227.132 210.7336,229.8716C205.9382,230.7607 198.327,228.878 179.2354,230.5818C176.9153,230.7889 165.6468,228.7934 164.0971,227.9302C154.5253,222.5985 156.3148,214.8424 162.782,211.2978C164.0936,212.2524 164.1652,214.0297 165.0783,215.0891C167.0937,217.4273 169.5036,217.4821 170.7368,217.7827C178.4906,217.4889 199.6558,217.7946 202.1701,217.8309C206.1306,217.5812 206.6061,217.9156 209.5252,214.3877C209.7747,214.0861 211.6941,210.0812 211.8749,209.704ZM335.7531,159.4636C337.7971,158.179 339.3324,156.6972 339.4978,156.7422C339.9933,156.8771 342.8621,158.4659 343.3243,158.6557C344.0331,158.9468 343.5776,159.3193 344.2991,159.6156C343.7472,161.2001 344.3062,161.1822 344.4374,162.0733C344.2731,163.5212 344.4517,163.5245 343.7855,164.8826C340.2974,171.9927 319.5393,170.3136 318.6264,170.1424C312.6679,169.0255 311.5017,170.0333 308.4071,169.4956C299.996,168.0339 288.3303,169.0311 293.0506,159.1866C298.2075,154.4787 299.8794,159.0672 304.1621,160.3066C315.159,162.0469 327.3925,159.8174 335.7531,159.4636ZM417.3459,170.2837L418.7182,169.7993L422.1988,171.7195C422.2673,171.9971 422.5214,173.0259 423.4881,175.0934L422.9609,177.1766C422.9326,177.2347 422.3892,180.2588 417.3973,182.3987C412.0348,184.6974 401.684,184.7725 400.2976,184.7826C398.0142,184.7992 377.6555,184.9469 372.3143,180.0306C367.7116,175.7942 373.3959,172.0836 374.0318,171.6684C375.6191,171.1702 375.5993,171.2859 377.3185,171.1379C378.1158,171.2955 378.7995,171.0746 380.5587,172.3594C386.2062,176.4836 410.4185,174.907 413.0381,172.8902C414.8893,171.4648 414.4953,170.9779 417.3459,170.2837ZM142.7004,168.7883C144.8412,168.4607 144.7863,168.356 146.8936,168.6104C148.537,169.1569 148.5321,169.1428 148.6685,169.2006C157.1917,172.8169 149.0042,188.3671 134.2014,185.0826C133.0126,181.8261 134.1531,181.2606 127.2545,173.6479C128.8303,172.031 129.0796,172.3547 131.5563,172.0082C137.409,171.1893 137.0091,170.2525 142.7004,168.7883Z" style="fill:rgb(254,248,220);"/>
    </g>
</svg>
